<mxfile host="app.diagrams.net" modified="2023-05-24T11:01:28.559Z" agent="Mozilla/5.0 (Windows NT 10.0; Win64; x64) AppleWebKit/537.36 (KHTML, like Gecko) Chrome/113.0.0.0 Safari/537.36" etag="B7sdwznP0bpCBr8VlFnB" version="21.3.3" type="github">
  <diagram id="C5RBs43oDa-KdzZeNtuy" name="Page-1">
    <mxGraphModel dx="1185" dy="610" grid="1" gridSize="10" guides="1" tooltips="1" connect="1" arrows="1" fold="1" page="1" pageScale="1" pageWidth="827" pageHeight="1169" math="0" shadow="0">
      <root>
        <mxCell id="WIyWlLk6GJQsqaUBKTNV-0" />
        <mxCell id="WIyWlLk6GJQsqaUBKTNV-1" parent="WIyWlLk6GJQsqaUBKTNV-0" />
        <mxCell id="Spr3aAGcyYihUhXn4Ipr-10" style="edgeStyle=orthogonalEdgeStyle;rounded=0;orthogonalLoop=1;jettySize=auto;html=1;entryX=0;entryY=0.5;entryDx=0;entryDy=0;exitX=1.032;exitY=0.807;exitDx=0;exitDy=0;exitPerimeter=0;" edge="1" parent="WIyWlLk6GJQsqaUBKTNV-1" source="Spr3aAGcyYihUhXn4Ipr-4" target="Spr3aAGcyYihUhXn4Ipr-8">
          <mxGeometry relative="1" as="geometry" />
        </mxCell>
        <mxCell id="Spr3aAGcyYihUhXn4Ipr-4" value="&lt;span style=&quot;white-space: pre;&quot;&gt;	&lt;/span&gt;KepServer" style="rounded=0;whiteSpace=wrap;html=1;points=[[0,0,0,0,0],[0,0.25,0,0,0],[0,0.5,0,0,0],[0,0.75,0,0,0],[0,1,0,0,0],[0.25,0,0,0,0],[0.25,1,0,0,0],[0.5,0,0,0,0],[0.5,1,0,0,0],[0.75,0,0,0,0],[0.75,1,0,0,0],[1,0,0,0,0],[1,0.25,0,0,0],[1,0.5,0,0,0],[1,0.75,0,0,0],[1,1,0,0,0]];" vertex="1" parent="WIyWlLk6GJQsqaUBKTNV-1">
          <mxGeometry x="84" y="214" width="140" height="180" as="geometry" />
        </mxCell>
        <mxCell id="Spr3aAGcyYihUhXn4Ipr-6" value="&#xa;通信" style="swimlane;startSize=0;dashed=1;dashPattern=8 8;" vertex="1" parent="WIyWlLk6GJQsqaUBKTNV-1">
          <mxGeometry x="294" y="189" width="320" height="260" as="geometry">
            <mxRectangle x="300" y="530" width="60" height="40" as="alternateBounds" />
          </mxGeometry>
        </mxCell>
        <mxCell id="Spr3aAGcyYihUhXn4Ipr-13" value="" style="edgeStyle=orthogonalEdgeStyle;rounded=0;orthogonalLoop=1;jettySize=auto;html=1;" edge="1" parent="Spr3aAGcyYihUhXn4Ipr-6" source="Spr3aAGcyYihUhXn4Ipr-7" target="Spr3aAGcyYihUhXn4Ipr-12">
          <mxGeometry relative="1" as="geometry" />
        </mxCell>
        <mxCell id="Spr3aAGcyYihUhXn4Ipr-7" value="读线程" style="rounded=0;whiteSpace=wrap;html=1;" vertex="1" parent="Spr3aAGcyYihUhXn4Ipr-6">
          <mxGeometry x="20" y="40" width="120" height="60" as="geometry" />
        </mxCell>
        <mxCell id="Spr3aAGcyYihUhXn4Ipr-8" value="写线程" style="rounded=0;whiteSpace=wrap;html=1;" vertex="1" parent="Spr3aAGcyYihUhXn4Ipr-6">
          <mxGeometry x="20" y="140" width="120" height="60" as="geometry" />
        </mxCell>
        <mxCell id="Spr3aAGcyYihUhXn4Ipr-18" value="&lt;br&gt;否" style="edgeStyle=orthogonalEdgeStyle;rounded=0;orthogonalLoop=1;jettySize=auto;html=1;exitX=0.5;exitY=1;exitDx=0;exitDy=0;" edge="1" parent="Spr3aAGcyYihUhXn4Ipr-6" source="Spr3aAGcyYihUhXn4Ipr-12">
          <mxGeometry relative="1" as="geometry">
            <mxPoint x="160" y="70" as="targetPoint" />
          </mxGeometry>
        </mxCell>
        <mxCell id="Spr3aAGcyYihUhXn4Ipr-12" value="数据变化？" style="rhombus;whiteSpace=wrap;html=1;rounded=0;" vertex="1" parent="Spr3aAGcyYihUhXn4Ipr-6">
          <mxGeometry x="180" y="30" width="80" height="80" as="geometry" />
        </mxCell>
        <mxCell id="Spr3aAGcyYihUhXn4Ipr-9" value="&lt;br&gt;监视器" style="edgeStyle=orthogonalEdgeStyle;rounded=0;orthogonalLoop=1;jettySize=auto;html=1;entryX=1;entryY=0.25;entryDx=0;entryDy=0;entryPerimeter=0;" edge="1" parent="WIyWlLk6GJQsqaUBKTNV-1" source="Spr3aAGcyYihUhXn4Ipr-7" target="Spr3aAGcyYihUhXn4Ipr-4">
          <mxGeometry x="0.1111" y="-20" relative="1" as="geometry">
            <mxPoint as="offset" />
          </mxGeometry>
        </mxCell>
        <mxCell id="Spr3aAGcyYihUhXn4Ipr-16" value="发信号signal_PLCTOXX()" style="whiteSpace=wrap;html=1;rounded=0;" vertex="1" parent="WIyWlLk6GJQsqaUBKTNV-1">
          <mxGeometry x="644" y="229" width="120" height="60" as="geometry" />
        </mxCell>
        <mxCell id="Spr3aAGcyYihUhXn4Ipr-19" value="&lt;br&gt;是" style="edgeStyle=orthogonalEdgeStyle;rounded=0;orthogonalLoop=1;jettySize=auto;html=1;entryX=0;entryY=0.5;entryDx=0;entryDy=0;" edge="1" parent="WIyWlLk6GJQsqaUBKTNV-1" source="Spr3aAGcyYihUhXn4Ipr-12" target="Spr3aAGcyYihUhXn4Ipr-16">
          <mxGeometry relative="1" as="geometry">
            <mxPoint x="654" y="259" as="targetPoint" />
          </mxGeometry>
        </mxCell>
        <mxCell id="Spr3aAGcyYihUhXn4Ipr-21" style="edgeStyle=orthogonalEdgeStyle;rounded=0;orthogonalLoop=1;jettySize=auto;html=1;entryX=1;entryY=0.5;entryDx=0;entryDy=0;" edge="1" parent="WIyWlLk6GJQsqaUBKTNV-1" source="Spr3aAGcyYihUhXn4Ipr-20" target="Spr3aAGcyYihUhXn4Ipr-8">
          <mxGeometry relative="1" as="geometry" />
        </mxCell>
        <mxCell id="Spr3aAGcyYihUhXn4Ipr-20" value="发信号signal_XXTOPLC()" style="rounded=0;whiteSpace=wrap;html=1;" vertex="1" parent="WIyWlLk6GJQsqaUBKTNV-1">
          <mxGeometry x="644" y="329" width="120" height="60" as="geometry" />
        </mxCell>
        <mxCell id="Spr3aAGcyYihUhXn4Ipr-22" value="&lt;h1&gt;通信实现方式-发信号&lt;/h1&gt;&lt;div&gt;signal_PLCTOMC(const ComMessSstruct&amp;amp; ComMess)&lt;/div&gt;&lt;div&gt;signal_MCTOPLC(const ComMessSstruct&amp;amp; ComMess)&lt;/div&gt;&lt;div&gt;&lt;div style=&quot;border-color: var(--border-color);&quot;&gt;signal_PLCTOCAM(const ComMessSstruct&amp;amp; ComMess)&lt;/div&gt;&lt;div style=&quot;border-color: var(--border-color);&quot;&gt;signal_CAMTOPLC(const ComMessSstruct&amp;amp; ComMess)&lt;/div&gt;&lt;/div&gt;" style="text;html=1;strokeColor=none;fillColor=none;spacing=5;spacingTop=-20;whiteSpace=wrap;overflow=hidden;rounded=0;" vertex="1" parent="WIyWlLk6GJQsqaUBKTNV-1">
          <mxGeometry x="624" y="10" width="190" height="204" as="geometry" />
        </mxCell>
        <mxCell id="Spr3aAGcyYihUhXn4Ipr-23" value="&lt;b&gt;主界面 Mainwindow&lt;/b&gt;" style="swimlane;fontStyle=0;childLayout=stackLayout;horizontal=1;startSize=26;fillColor=none;horizontalStack=0;resizeParent=1;resizeParentMax=0;resizeLast=0;collapsible=1;marginBottom=0;whiteSpace=wrap;html=1;" vertex="1" parent="WIyWlLk6GJQsqaUBKTNV-1">
          <mxGeometry x="424" y="590" width="390" height="130" as="geometry" />
        </mxCell>
        <mxCell id="Spr3aAGcyYihUhXn4Ipr-24" value="+ signal_PLCTOMCInfo(const ComMessSstruct&amp;amp; ComMess): void" style="text;strokeColor=none;fillColor=none;align=left;verticalAlign=top;spacingLeft=4;spacingRight=4;overflow=hidden;rotatable=0;points=[[0,0.5],[1,0.5]];portConstraint=eastwest;whiteSpace=wrap;html=1;" vertex="1" parent="Spr3aAGcyYihUhXn4Ipr-23">
          <mxGeometry y="26" width="390" height="26" as="geometry" />
        </mxCell>
        <mxCell id="Spr3aAGcyYihUhXn4Ipr-25" value="+ signal_MCTOPLCInfo(const ComMessSstruct&amp;amp; ComMess): void" style="text;strokeColor=none;fillColor=none;align=left;verticalAlign=top;spacingLeft=4;spacingRight=4;overflow=hidden;rotatable=0;points=[[0,0.5],[1,0.5]];portConstraint=eastwest;whiteSpace=wrap;html=1;" vertex="1" parent="Spr3aAGcyYihUhXn4Ipr-23">
          <mxGeometry y="52" width="390" height="26" as="geometry" />
        </mxCell>
        <mxCell id="Spr3aAGcyYihUhXn4Ipr-30" value="+ slot_PLCTOMCInfo(const ComMessSstruct&amp;amp; ComMess): void" style="text;strokeColor=none;fillColor=none;align=left;verticalAlign=top;spacingLeft=4;spacingRight=4;overflow=hidden;rotatable=0;points=[[0,0.5],[1,0.5]];portConstraint=eastwest;whiteSpace=wrap;html=1;" vertex="1" parent="Spr3aAGcyYihUhXn4Ipr-23">
          <mxGeometry y="78" width="390" height="26" as="geometry" />
        </mxCell>
        <mxCell id="Spr3aAGcyYihUhXn4Ipr-31" value="+ slot_MCTOPLCInfo(const ComMessSstruct&amp;amp; ComMess): void" style="text;strokeColor=none;fillColor=none;align=left;verticalAlign=top;spacingLeft=4;spacingRight=4;overflow=hidden;rotatable=0;points=[[0,0.5],[1,0.5]];portConstraint=eastwest;whiteSpace=wrap;html=1;" vertex="1" parent="Spr3aAGcyYihUhXn4Ipr-23">
          <mxGeometry y="104" width="390" height="26" as="geometry" />
        </mxCell>
        <mxCell id="Spr3aAGcyYihUhXn4Ipr-27" value="&lt;b&gt;自动界面mainframe&lt;/b&gt;" style="swimlane;fontStyle=0;childLayout=stackLayout;horizontal=1;startSize=26;fillColor=none;horizontalStack=0;resizeParent=1;resizeParentMax=0;resizeLast=0;collapsible=1;marginBottom=0;whiteSpace=wrap;html=1;" vertex="1" parent="WIyWlLk6GJQsqaUBKTNV-1">
          <mxGeometry x="14" y="710" width="390" height="78" as="geometry" />
        </mxCell>
        <mxCell id="Spr3aAGcyYihUhXn4Ipr-28" value="+ signal_PLCTOMCInfo(const ComMessSstruct&amp;amp; ComMess): void" style="text;strokeColor=none;fillColor=none;align=left;verticalAlign=top;spacingLeft=4;spacingRight=4;overflow=hidden;rotatable=0;points=[[0,0.5],[1,0.5]];portConstraint=eastwest;whiteSpace=wrap;html=1;" vertex="1" parent="Spr3aAGcyYihUhXn4Ipr-27">
          <mxGeometry y="26" width="390" height="26" as="geometry" />
        </mxCell>
        <mxCell id="Spr3aAGcyYihUhXn4Ipr-29" value="+ signal_MCTOPLCInfo(const ComMessSstruct&amp;amp; ComMess): void" style="text;strokeColor=none;fillColor=none;align=left;verticalAlign=top;spacingLeft=4;spacingRight=4;overflow=hidden;rotatable=0;points=[[0,0.5],[1,0.5]];portConstraint=eastwest;whiteSpace=wrap;html=1;" vertex="1" parent="Spr3aAGcyYihUhXn4Ipr-27">
          <mxGeometry y="52" width="390" height="26" as="geometry" />
        </mxCell>
        <mxCell id="Spr3aAGcyYihUhXn4Ipr-33" value="Use" style="endArrow=open;endSize=12;dashed=1;html=1;rounded=0;entryX=0.001;entryY=0.147;entryDx=0;entryDy=0;entryPerimeter=0;" edge="1" parent="WIyWlLk6GJQsqaUBKTNV-1" source="Spr3aAGcyYihUhXn4Ipr-27" target="Spr3aAGcyYihUhXn4Ipr-23">
          <mxGeometry width="160" relative="1" as="geometry">
            <mxPoint x="502" y="786" as="sourcePoint" />
            <mxPoint x="404" y="570" as="targetPoint" />
            <Array as="points">
              <mxPoint x="209" y="610" />
            </Array>
          </mxGeometry>
        </mxCell>
        <mxCell id="Spr3aAGcyYihUhXn4Ipr-34" value="&lt;b&gt;自动线程threadAuto&lt;/b&gt;" style="swimlane;fontStyle=0;childLayout=stackLayout;horizontal=1;startSize=26;fillColor=none;horizontalStack=0;resizeParent=1;resizeParentMax=0;resizeLast=0;collapsible=1;marginBottom=0;whiteSpace=wrap;html=1;" vertex="1" parent="WIyWlLk6GJQsqaUBKTNV-1">
          <mxGeometry x="14" y="830" width="390" height="78" as="geometry" />
        </mxCell>
        <mxCell id="Spr3aAGcyYihUhXn4Ipr-35" value="+ signal_PLCTOMCInfo(const ComMessSstruct&amp;amp; ComMess): void" style="text;strokeColor=none;fillColor=none;align=left;verticalAlign=top;spacingLeft=4;spacingRight=4;overflow=hidden;rotatable=0;points=[[0,0.5],[1,0.5]];portConstraint=eastwest;whiteSpace=wrap;html=1;" vertex="1" parent="Spr3aAGcyYihUhXn4Ipr-34">
          <mxGeometry y="26" width="390" height="26" as="geometry" />
        </mxCell>
        <mxCell id="Spr3aAGcyYihUhXn4Ipr-36" value="+ signal_MCTOPLCInfo(const ComMessSstruct&amp;amp; ComMess): void" style="text;strokeColor=none;fillColor=none;align=left;verticalAlign=top;spacingLeft=4;spacingRight=4;overflow=hidden;rotatable=0;points=[[0,0.5],[1,0.5]];portConstraint=eastwest;whiteSpace=wrap;html=1;" vertex="1" parent="Spr3aAGcyYihUhXn4Ipr-34">
          <mxGeometry y="52" width="390" height="26" as="geometry" />
        </mxCell>
        <mxCell id="Spr3aAGcyYihUhXn4Ipr-37" value="" style="endArrow=none;html=1;edgeStyle=orthogonalEdgeStyle;rounded=0;" edge="1" parent="WIyWlLk6GJQsqaUBKTNV-1" source="Spr3aAGcyYihUhXn4Ipr-27" target="Spr3aAGcyYihUhXn4Ipr-34">
          <mxGeometry relative="1" as="geometry">
            <mxPoint x="294" y="700" as="sourcePoint" />
            <mxPoint x="454" y="700" as="targetPoint" />
          </mxGeometry>
        </mxCell>
        <mxCell id="Spr3aAGcyYihUhXn4Ipr-38" value="parent" style="edgeLabel;resizable=0;html=1;align=left;verticalAlign=bottom;" connectable="0" vertex="1" parent="Spr3aAGcyYihUhXn4Ipr-37">
          <mxGeometry x="-1" relative="1" as="geometry">
            <mxPoint x="5" y="22" as="offset" />
          </mxGeometry>
        </mxCell>
        <mxCell id="Spr3aAGcyYihUhXn4Ipr-39" value="child" style="edgeLabel;resizable=0;html=1;align=right;verticalAlign=bottom;" connectable="0" vertex="1" parent="Spr3aAGcyYihUhXn4Ipr-37">
          <mxGeometry x="1" relative="1" as="geometry">
            <mxPoint x="-5" as="offset" />
          </mxGeometry>
        </mxCell>
        <mxCell id="Spr3aAGcyYihUhXn4Ipr-40" value="&lt;h1&gt;通信功能类图&lt;/h1&gt;&lt;div&gt;目的是实现通信线程和自动线程及串口线程的通信&lt;/div&gt;" style="text;html=1;strokeColor=none;fillColor=none;spacing=5;spacingTop=-20;whiteSpace=wrap;overflow=hidden;rounded=0;" vertex="1" parent="WIyWlLk6GJQsqaUBKTNV-1">
          <mxGeometry x="15" y="520" width="190" height="120" as="geometry" />
        </mxCell>
      </root>
    </mxGraphModel>
  </diagram>
</mxfile>
